<svg data-v-423bf9ae="" xmlns="http://www.w3.org/2000/svg" viewBox="0 0 306.0406747176598 60" class="font"><!----><!----><!----><g data-v-423bf9ae="" id="58a532eb-b1a0-4bf5-b9f2-2735cd2eed07" fill="white" transform="matrix(5.808325290679932,0,0,5.808325290679932,-0.8131589293479919,-19.748310089111328)"><path d="M9.56 13.52L12.77 4.36L11.43 4.36L9.19 11.17L6.84 4.38L6.04 4.36L3.62 11.17L1.48 4.36L0.14 4.36L3.21 13.52L3.91 13.52L6.40 6.59L8.86 13.52ZM20.03 9.87C20.03 8.00 18.99 6.55 16.88 6.55C14.96 6.55 13.59 8.20 13.59 10.14C13.59 12.09 15.08 13.73 17.16 13.73C18.22 13.73 18.94 13.26 19.21 12.99L19.21 11.85C18.76 12.18 18.14 12.63 17.16 12.63C15.85 12.63 14.94 11.69 14.78 10.54L20.03 10.54ZM14.81 9.58C15.00 8.50 15.76 7.64 16.88 7.64C17.84 7.64 18.79 8.26 18.92 9.58ZM27.43 8.82C28.37 8.46 28.77 7.59 28.77 6.84C28.77 5.35 27.51 4.36 25.88 4.36L22.22 4.36L22.22 13.32C23.08 13.51 24.42 13.66 25.55 13.66C27.77 13.66 29.20 12.47 29.20 10.94C29.20 9.61 28.23 8.98 27.43 8.82ZM23.45 5.52L25.59 5.52C26.74 5.52 27.51 6.00 27.51 6.97C27.51 7.81 26.74 8.39 25.59 8.39L23.45 8.39ZM25.53 12.50C25.02 12.50 24.10 12.46 23.45 12.33L23.45 9.49L25.62 9.49C26.89 9.49 27.95 9.94 27.95 10.94C27.95 11.89 26.89 12.50 25.53 12.50ZM36.87 6.69L35.71 6.69L35.71 10.73C35.71 11.92 34.89 12.56 33.97 12.56C33.06 12.56 32.24 11.92 32.24 10.73L32.24 6.69L31.08 6.69L31.08 10.73C31.08 12.54 32.33 13.66 33.97 13.66C35.62 13.66 36.87 12.54 36.87 10.73ZM40.09 5.26C40.61 5.26 41.02 4.81 41.02 4.33C41.02 3.84 40.61 3.40 40.09 3.40C39.55 3.40 39.16 3.84 39.16 4.33C39.16 4.81 39.55 5.26 40.09 5.26ZM40.78 6.69L38.58 6.69L38.58 7.74L39.66 7.74L39.66 13.52L40.78 13.52ZM44.32 13.52L44.32 3.68L43.20 3.68L43.20 13.52ZM52.83 13.52L52.83 3.68L51.71 3.68L51.71 7.60C51.12 6.95 50.24 6.55 49.46 6.55C47.59 6.55 46.17 7.96 46.17 10.21C46.17 12.29 47.59 13.73 49.36 13.73C50.39 13.73 51.23 13.08 51.71 12.36L51.71 13.52ZM49.67 7.67C50.50 7.67 51.12 8.07 51.69 8.78L51.71 10.09C51.72 11.55 50.78 12.63 49.53 12.63C48.21 12.63 47.33 11.54 47.33 10.21C47.33 8.89 48.21 7.67 49.67 7.67Z"></path></g><!----><!----></svg>